<svg width="800" height="800" viewBox="0 0 800 800" fill="none" xmlns="http://www.w3.org/2000/svg">
<path d="M400 733.333C584.1 733.333 733.333 584.1 733.333 400C733.333 215.9 584.1 66.6667 400 66.6667C215.9 66.6667 66.6666 215.9 66.6666 400C66.6666 584.1 215.9 733.333 400 733.333Z" fill="#6FBFF2" stroke="#6FBFF2" stroke-width="66.6667" stroke-linecap="round" stroke-linejoin="round"/>
<path d="M233.333 400L400 166.667L566.667 400M233.333 400L400 633.333L566.667 400M233.333 400L400 333.333L566.667 400M233.333 400L400 466.667L566.667 400" fill="#6FBFF2"/>
<path d="M233.333 400L400 166.667L566.667 400M233.333 400L400 633.333L566.667 400M233.333 400L400 333.333L566.667 400M233.333 400L400 466.667L566.667 400" stroke="white" stroke-width="66.6667" stroke-linecap="round" stroke-linejoin="round"/>
</svg>
