<svg width="800" height="800" viewBox="0 0 800 800" fill="none" xmlns="http://www.w3.org/2000/svg">
<g clip-path="url(#clip0_340_323)">
<path d="M400 0C320.888 0 243.552 23.4596 177.772 67.4122C111.992 111.365 60.7234 173.836 30.4484 246.927C0.173314 320.017 -7.74802 400.444 7.68607 478.036C23.1202 555.629 61.2165 626.902 117.157 682.843C173.098 738.784 244.372 776.88 321.964 792.314C399.556 807.748 479.983 799.827 553.074 769.552C626.164 739.277 688.635 688.008 732.588 622.228C776.541 556.448 800 479.113 800 400C800 293.913 757.857 192.172 682.843 117.157C607.828 42.1427 506.087 0 400 0ZM391.277 122.59H477.41C479.175 122.588 480.917 122.995 482.498 123.78C484.08 124.565 485.458 125.706 486.524 127.113C487.59 128.52 488.315 130.155 488.642 131.89C488.969 133.624 488.89 135.411 488.41 137.11L420.704 367.71L484.244 348.31L470.637 394.467L406.51 413.15L364.91 553.583H587.433C589.2 553.588 590.942 554.003 592.522 554.795C594.101 555.587 595.475 556.735 596.536 558.148C597.596 559.561 598.314 561.201 598.633 562.939C598.952 564.677 598.863 566.466 598.374 568.163L578.973 634.83C578.048 638.001 576.121 640.786 573.48 642.77C570.839 644.753 567.626 645.828 564.324 645.833H224.413L281.837 451.757L218.293 471.093L232.294 425.717L295.963 406.383L376.694 133.723C377.578 130.531 379.482 127.716 382.114 125.706C384.747 123.696 387.965 122.602 391.277 122.59Z" fill="url(#paint0_linear_340_323)"/>
</g>
<defs>
<linearGradient id="paint0_linear_340_323" x1="400" y1="0" x2="400" y2="800" gradientUnits="userSpaceOnUse">
<stop stop-color="#EC72CA"/>
<stop offset="1" stop-color="#864173"/>
</linearGradient>
<clipPath id="clip0_340_323">
<rect width="800" height="800" fill="white"/>
</clipPath>
</defs>
</svg>
